<svg width="51" height="27" viewBox="0 0 51 27" fill="none" xmlns="http://www.w3.org/2000/svg">
<path d="M11.9531 13.4219L6.85938 6.0625H10.8906L13.9375 10.8906L16.8438 6.0625H20.7188L15.9531 13.3125L21.3281 21H17.2344L13.9688 15.9375L10.8906 21H6.79688L11.9531 13.4219Z" fill="white"/>
<path d="M27.3112 21.5156C25.9883 21.5156 24.7852 21.1771 23.7019 20.5C22.6185 19.8229 21.7644 18.8802 21.1394 17.6719C20.5144 16.4635 20.2019 15.0885 20.2019 13.5469C20.2019 12.099 20.5196 10.7812 21.155 9.59375C21.7904 8.39583 22.6498 7.45312 23.7331 6.76562C24.8269 6.07812 26.0196 5.73438 27.3112 5.73438C28.6029 5.73438 29.7904 6.07812 30.8737 6.76562C31.9675 7.45312 32.8321 8.39583 33.4675 9.59375C34.1029 10.7812 34.4206 12.099 34.4206 13.5469C34.4206 15.0885 34.1081 16.4635 33.4831 17.6719C32.8581 18.8802 32.004 19.8229 30.9206 20.5C29.8373 21.1771 28.6342 21.5156 27.3112 21.5156ZM27.3112 18.625C28.0196 18.625 28.6342 18.4167 29.155 18C29.6862 17.5729 30.0925 16.9792 30.3737 16.2188C30.655 15.4479 30.7956 14.5573 30.7956 13.5469C30.7956 12.526 30.655 11.6458 30.3737 10.9062C30.0925 10.1667 29.6862 9.59896 29.155 9.20312C28.6342 8.80729 28.0196 8.60938 27.3112 8.60938C26.6342 8.60938 26.0352 8.80729 25.5144 9.20312C25.004 9.59896 24.6029 10.1719 24.3112 10.9219C24.03 11.6615 23.8894 12.5365 23.8894 13.5469C23.8894 14.5677 24.0248 15.4635 24.2956 16.2344C24.5769 16.9948 24.9727 17.5833 25.4831 18C25.9935 18.4167 26.6029 18.625 27.3112 18.625Z" fill="white"/>
<path d="M43.4037 5.73438C44.1433 5.73438 44.8777 5.875 45.6069 6.15625C46.3465 6.42708 47.0027 6.83333 47.5756 7.375L45.8569 10.8125L45.5287 10.6562C45.5079 10.5833 45.4871 10.4792 45.4662 10.3438C45.435 10.1458 45.3881 9.97917 45.3256 9.84375C45.2735 9.69792 45.159 9.55208 44.9819 9.40625C44.461 8.98958 43.8204 8.78125 43.06 8.78125C42.2996 8.78125 41.6121 8.96354 40.9975 9.32812C40.3829 9.68229 39.8985 10.1927 39.5444 10.8594C39.2006 11.526 39.0287 12.3021 39.0287 13.1875V21H35.4037V6.0625H39.0912V8.20312C39.4871 7.43229 40.0652 6.82812 40.8256 6.39062C41.5965 5.95312 42.4558 5.73438 43.4037 5.73438Z" fill="white"/>
</svg>