<svg width="625" height="100" viewBox="0 0 625 100" fill="none" xmlns="http://www.w3.org/2000/svg">
<g clip-path="url(#clip0_217_18)">
<path d="M282 11V7.99999C288 5.49999 300.6 0.399986 303 -1.42157e-05C305.4 -0.400014 307 0.833319 307.5 1.49999V66.5C307.5 68 312.5 71 312.5 72.5C312.5 73.7 310.5 75.6666 309.5 76.5C301.833 76.3333 286.2 76 285 76C283.5 76 283 74.5 282.5 73.5C282.1 72.7 282.333 71.5 282.5 71L287 66.5C286.833 51 286.5 19.4 286.5 17C286.5 14.6 283.5 12 282 11Z" fill="white"/>
<path fill-rule="evenodd" clip-rule="evenodd" d="M259.5 26C254.667 25.8333 243.8 27.5 239 35.5C234.2 43.5 233 53.5 233 57.5C233.667 63.3333 237.9 75.3 249.5 76.5C261.1 77.7 265.333 77 266 76.5C270.667 74.3333 280.2 68.9 281 64.5C281.8 60.1 278 60.3333 276 61C274.667 62.3333 270.4 64.9 264 64.5C257.6 64.1 253.667 59.3333 252.5 57L274.5 51C277 49.6667 280 47.5 280 43.5C280 38.8902 276.5 29.5 268.5 27.5C264 26.375 259.5 25.5 259.5 26ZM250.5 49.5C249.833 44.6667 249.9 34.9 255.5 34.5C262.5 34 263 41 262.5 42.5C262 44 260.5 46.5 256.5 48C253.3 49.2 251.167 49.5 250.5 49.5Z" fill="white"/>
<path d="M172.5 35.5V32.5C172.5 32.5 187.5 26.5 195 26.5C196 26.5 196 33.5 196 33.5C198.833 30.6667 206.5 25.1 214.5 25.5C222.5 25.9 225.167 33.3333 225.5 37V66C225.5 68 231.5 71.5 231.5 73.5C231.5 75.1 229.5 75.8333 228.5 76C221.333 75.8333 206.8 75.5 206 75.5C205 75.5 200.927 71.5 202.5 71C203.759 70.6 205.358 67.5 206 66V44C206 39.5 204.5 39 202 39C200 39 198.167 41.6667 197.5 43C197.333 50 197 64.4 197 66C197 68 201.5 71.5 201.5 72.5C201.5 73.3 199.5 74.8333 198.5 75.5H175C173.4 75.5 172.667 74.5 172.5 74C172 73.3333 171.3 71.9 172.5 71.5C173.7 71.1 176 68 177 66.5V41.5C177 39.1 174 36.5 172.5 35.5Z" fill="white"/>
<path d="M35.5 9H2.5C2.16667 9.83333 1.5 11.8 1.5 13C1.5 14.2 6.5 18.8333 9 21C9 35 8.9 63.4 8.5 65C8 67 0.5 71.5 0.5 73C0.5 74.2 2.83333 75.5 4 76H31.5C34.3 76 35.6667 74.6667 36 74C36.3333 73.3333 36.8 71.9 36 71.5C35.2 71.1 31.3333 65.6667 29.5 63L30.5 49.5C30.5 49 31.2 48.1 34 48.5C37.5 49 41 53 42.5 63C44 73 53.5 77.5 60.5 77.5C66.1 77.5 71.8333 74.5 74 73C74.3333 71.5 74.4 68.4 72 68C69 67.5 65 63 60.5 51.5C56.9 42.3 48 40 44 40C54 31.1667 74 13.3 74 12.5C74 11.7 72.6667 9.83333 72 9H47C45 9 44 10.5 44 12.5C44 14.5 49 17.5 49 19.5C49 21.5 44 27.5 41 30C38.6 32 33 35.8333 30.5 37.5V20.5C30.5 17 37.5 14 38 12.5C38.4 11.3 36.5 9.66667 35.5 9Z" fill="white"/>
<path fill-rule="evenodd" clip-rule="evenodd" d="M100.5 26C111 26 122.402 30.1386 123 41.5C123.5 51 105.5 54 104.5 54C103.7 54 98.1667 55.3333 95.5 56C96.1667 58.8333 99.4 64.5 107 64.5C113.279 64.5 116.282 62.7526 118.318 61.5677C119.362 60.9598 120.152 60.5 121 60.5C123.5 60.5 124 63.5 123.5 65C123 66.5 116 78.5 100.5 77.5C85 76.5 75.5 66 75.5 51C75.5 36 90 26 100.5 26ZM92.9924 49.7997C92.9128 48.0007 92.3572 35.4451 98.5 34.5C105 33.5 105.5 40 105.5 42C105.5 44 97 50 93 50C93 49.9725 92.997 49.9043 92.9924 49.7997Z" fill="white"/>
<path d="M144.5 26.5C146.9 26.1 148.5 27.3333 149 28V34.5C152.333 31.3333 159.7 25 162.5 25C166 25 170.5 31.5 170.5 35.5C170.5 39.5 166.5 44.5 162.5 44.5C158.5 44.5 157.5 40 155 40C153 40 152.167 41.3333 152 42C151.667 49.5 151.2 64.9 152 66.5C153 68.5 160 71.5 160 72.5C160 73.3 158.333 75.1667 157.5 76H129C127 76 126 74 126 72.5C126 71.3 129.333 68 131 66.5C131.167 59.5 131.4 44.6 131 41C130.5 36.5 126.5 36 126 34.5C125.5 33 127 30.5 129 30C131 29.5 141.5 27 144.5 26.5Z" fill="white"/>
<path fill-rule="evenodd" clip-rule="evenodd" d="M372.5 7.5C384.167 7.5 407.7 14.6 408.5 43C409.3 71.4 381.833 77.5 368 77C371.333 79.6667 379.6 84.9 386 84.5C391.859 84.1338 396.645 79.4771 399.18 77.0105C400.106 76.109 400.732 75.5 401 75.5C402 75.5 404.5 79.5 404.5 82C404.5 84.5 399.5 100 386 100C376.825 100 366.957 91.686 360.635 86.3588C357.654 83.8475 355.461 82 354.5 82C351.5 82 350.5 82.5 349.5 84.5C349.376 84.7481 349.252 85.0038 349.127 85.2616C348.244 87.0817 347.314 89 346 89C344.5 89 342.5 87 342.5 84.5C342.5 82 345.5 74 347.5 73.5C349.1 73.1 350.833 73.3333 351.5 73.5C345.5 70.1667 333.6 59.4 334 43C334.5 22.5 351.5 7.5 372.5 7.5ZM366 19.5C371.5 18.6667 383.2 22.3 386 43.5C388.8 64.7 378.167 67.6667 372.5 66.5C367.667 64.3333 357.7 57.3 356.5 46.5C355 33 355.5 22 366 19.5Z" fill="white"/>
<path d="M434 25.5C435.2 25.5 436.5 27.1667 437 28V60.5C437 63.5 438.5 64 440 64.5C441.2 64.9 443.5 62 444.5 60.5V42.5C444.5 39 440 37.5 439.5 35C439.1 33 440.667 30.5 441.5 29.5C447.333 28.1667 459.5 25.5 461.5 25.5C463.5 25.5 464.667 27.1667 465 28V65.5C465 68 470.5 70.5 470.5 71.5C470.5 72.3 469.5 74.1667 469 75H452.5H448.5V67.5C446 70.1667 440.5 75.8 438.5 77C436 78.5 429 77.5 424.5 77C420.9 76.6 418 70.5 417 67.5C416.833 60.6667 416.6 46.1 417 42.5C417.5 38 411.5 36 411.5 34C411.5 32.4 412.833 30.3333 413.5 29.5C419.833 28.1667 432.8 25.5 434 25.5Z" fill="white"/>
<path fill-rule="evenodd" clip-rule="evenodd" d="M520 43C519.5 37.5 514.7 26.3 499.5 25.5C480.5 24.5 472.5 44 472.5 46.5C472.5 49 473.5 65 475 66.5C475.119 66.6194 475.283 66.7927 475.489 67.0105C477.869 69.5288 485.876 78 496 78C507 78 520 70.5 520 66.5C520 62.5 519 60 517 60C516.225 60 514.925 60.7505 513.332 61.67C510.813 63.1238 507.563 65 504.5 65C499.5 65 493 60.5 492.5 58C492.1 56 506 52.8333 513 51.5C515.333 50.6667 520 47.8 520 43ZM502 41C501.833 38.6667 500.7 34 497.5 34C493.5 34 490 36.5 490 41V49.5C492.333 49.5 497.5 49 499.5 47C501.5 45 502 42.1667 502 41Z" fill="white"/>
<path d="M565 31.5C567 32.7 567.167 36 567 37.5C566.333 39.3333 564.2 43 561 43C557 43 556.5 43 553 40.5C549.5 38 544 33.5 542.5 33C541 32.5 539 35.5 539 37.5C539 39.5 544 41.5 550.5 43C557 44.5 567 49 567 60.5C567 72 558 75.5 553 76.5C548 77.5 538.5 77 536 76.5C533.5 76 526 74 525 67C524 60 531 60.5 534 60.5C537 60.5 544 70 547 70C550 70 553 68 553 66.5C553 65 548.5 60.5 544 60.5C539.5 60.5 529.5 54 526 52.5C522.5 51 524.5 41.5 526 35.5C527.5 29.5 539 26 547 25.5C555 25 562.5 30 565 31.5Z" fill="white"/>
<path d="M588 13C588.4 11 591.833 9.83333 593.5 9.5C595.5 11.1 596.333 12.5 596.5 13V27H607.5C609.9 27 610.833 30 611 31.5L607.5 37L596.5 38V60.5C596.5 63 600 65 602.5 65.5C605 66 606 63 608.5 63C611 63 613.5 64.5 613.5 68C613.5 71.5 604 75.5 602 76.5C600 77.5 590 77.5 585.5 77.5C581.9 77.5 578 70.1667 576.5 66.5C576.333 57 577.7 37 576.5 37C575 37 570 37 570 31.5C570 29 575.5 27 579.5 25C583.5 23 587.5 15.5 588 13Z" fill="white"/>
</g>
<defs>
<clipPath id="clip0_217_18">
<rect width="625" height="100" fill="white"/>
</clipPath>
</defs>
</svg>
