<svg width="379" height="219" viewBox="0 0 379 219" fill="none" xmlns="http://www.w3.org/2000/svg">
<g clip-path="url(#clip0_102_44)">
<rect width="379" height="219" fill="white"/>
<path d="M300.5 31.0781V28.0781C306.5 25.5781 319.1 20.4781 321.5 20.0781C323.9 19.6781 325.5 20.9114 326 21.5781V86.5781C326 88.0781 331 91.0781 331 92.5781C331 93.7781 329 95.7448 328 96.5781C320.333 96.4114 304.7 96.0781 303.5 96.0781C302 96.0781 301.5 94.5781 301 93.5781C300.6 92.7781 300.833 91.5781 301 91.0781L305.5 86.5781C305.333 71.0781 305 39.4781 305 37.0781C305 34.6781 302 32.0781 300.5 31.0781Z" fill="#1F1F1F"/>
<path fill-rule="evenodd" clip-rule="evenodd" d="M278 46.0781C273.167 45.9114 262.3 47.5781 257.5 55.5781C252.7 63.5781 251.5 73.5781 251.5 77.5781C252.167 83.4114 256.4 95.3781 268 96.5781C279.6 97.7781 283.833 97.0781 284.5 96.5781C289.167 94.4114 298.7 88.9781 299.5 84.5781C300.3 80.1781 296.5 80.4114 294.5 81.0781C293.167 82.4114 288.9 84.9781 282.5 84.5781C276.1 84.1781 272.167 79.4114 271 77.0781L293 71.0781C295.5 69.7448 298.5 67.5781 298.5 63.5781C298.5 58.9683 295 49.5781 287 47.5781C282.5 46.4531 278 45.5781 278 46.0781ZM269 69.5781C268.333 64.7448 268.4 54.9781 274 54.5781C281 54.0781 281.5 61.0781 281 62.5781C280.5 64.0781 279 66.5781 275 68.0781C271.8 69.2781 269.667 69.5781 269 69.5781Z" fill="#1F1F1F"/>
<path d="M191 55.5781V52.5781C191 52.5781 206 46.5781 213.5 46.5781C214.5 46.5781 214.5 53.5781 214.5 53.5781C217.333 50.7448 225 45.1781 233 45.5781C241 45.9781 243.667 53.4114 244 57.0781V86.0781C244 88.0781 250 91.5781 250 93.5781C250 95.1781 248 95.9114 247 96.0781C239.833 95.9114 225.3 95.5781 224.5 95.5781C223.5 95.5781 219.427 91.5781 221 91.0781C222.259 90.6781 223.858 87.5781 224.5 86.0781V64.0781C224.5 59.5781 223 59.0781 220.5 59.0781C218.5 59.0781 216.667 61.7448 216 63.0781C215.833 70.0781 215.5 84.4781 215.5 86.0781C215.5 88.0781 220 91.5781 220 92.5781C220 93.3781 218 94.9114 217 95.5781H193.5C191.9 95.5781 191.167 94.5781 191 94.0781C190.5 93.4114 189.8 91.9781 191 91.5781C192.2 91.1781 194.5 88.0781 195.5 86.5781V61.5781C195.5 59.1781 192.5 56.5781 191 55.5781Z" fill="#1F1F1F"/>
<path d="M54 29.0781H21C20.6667 29.9115 20 31.8781 20 33.0781C20 34.2781 25 38.9115 27.5 41.0781C27.5 55.0781 27.4 83.4781 27 85.0781C26.5 87.0781 19 91.5781 19 93.0781C19 94.2781 21.3333 95.5781 22.5 96.0781H50C52.8 96.0781 54.1667 94.7448 54.5 94.0781C54.8333 93.4115 55.3 91.9781 54.5 91.5781C53.7 91.1781 49.8333 85.7448 48 83.0781L49 69.5781C49 69.0781 49.7 68.1781 52.5 68.5781C56 69.0781 59.5 73.0781 61 83.0781C62.5 93.0781 72 97.5781 79 97.5781C84.6 97.5781 90.3333 94.5781 92.5 93.0781C92.8333 91.5781 92.9 88.4781 90.5 88.0781C87.5 87.5781 83.5 83.0781 79 71.5781C75.4 62.3781 66.5 60.0781 62.5 60.0781C72.5 51.2448 92.5 33.3781 92.5 32.5781C92.5 31.7781 91.1667 29.9115 90.5 29.0781H65.5C63.5 29.0781 62.5 30.5781 62.5 32.5781C62.5 34.5781 67.5 37.5781 67.5 39.5781C67.5 41.5781 62.5 47.5781 59.5 50.0781C57.1 52.0781 51.5 55.9115 49 57.5781V40.5781C49 37.0781 56 34.0781 56.5 32.5781C56.9 31.3781 55 29.7448 54 29.0781Z" fill="#1F1F1F"/>
<path fill-rule="evenodd" clip-rule="evenodd" d="M119 46.0781C129.5 46.0781 140.902 50.2167 141.5 61.5781C142 71.0781 124 74.0781 123 74.0781C122.2 74.0781 116.667 75.4115 114 76.0781C114.667 78.9115 117.9 84.5781 125.5 84.5781C131.779 84.5781 134.782 82.8307 136.818 81.6458C137.862 81.038 138.652 80.5781 139.5 80.5781C142 80.5781 142.5 83.5781 142 85.0781C141.5 86.5781 134.5 98.5781 119 97.5781C103.5 96.5781 94 86.0781 94 71.0781C94 56.0781 108.5 46.0781 119 46.0781ZM111.492 69.8778C111.413 68.0788 110.857 55.5232 117 54.5781C123.5 53.5781 124 60.0781 124 62.0781C124 64.0781 115.5 70.0781 111.5 70.0781C111.5 70.0506 111.497 69.9824 111.492 69.8778Z" fill="#1F1F1F"/>
<path d="M163 46.5781C165.4 46.1781 167 47.4115 167.5 48.0781V54.5781C170.833 51.4115 178.2 45.0781 181 45.0781C184.5 45.0781 189 51.5781 189 55.5781C189 59.5781 185 64.5781 181 64.5781C177 64.5781 176 60.0781 173.5 60.0781C171.5 60.0781 170.667 61.4115 170.5 62.0781C170.167 69.5781 169.7 84.9781 170.5 86.5781C171.5 88.5781 178.5 91.5781 178.5 92.5781C178.5 93.3781 176.833 95.2448 176 96.0781H147.5C145.5 96.0781 144.5 94.0781 144.5 92.5781C144.5 91.3781 147.833 88.0781 149.5 86.5781C149.667 79.5781 149.9 64.6781 149.5 61.0781C149 56.5781 145 56.0781 144.5 54.5781C144 53.0781 145.5 50.5781 147.5 50.0781C149.5 49.5781 160 47.0781 163 46.5781Z" fill="#1F1F1F"/>
<path fill-rule="evenodd" clip-rule="evenodd" d="M102.51 98C114.177 98 137.71 105.1 138.51 133.5C139.31 161.9 111.843 168 98.0098 167.5C101.343 170.167 109.61 175.4 116.01 175C121.869 174.634 126.655 169.977 129.19 167.51C130.116 166.609 130.742 166 131.01 166C132.01 166 134.51 170 134.51 172.5C134.51 175 129.51 190.5 116.01 190.5C106.835 190.5 96.9672 182.186 90.6444 176.859C87.6638 174.348 85.471 172.5 84.5098 172.5C81.5098 172.5 80.5098 173 79.5098 175C79.3858 175.248 79.2618 175.504 79.1368 175.762C78.2541 177.582 77.3238 179.5 76.0098 179.5C74.5098 179.5 72.5098 177.5 72.5098 175C72.5098 172.5 75.5098 164.5 77.5098 164C79.1098 163.6 80.8432 163.833 81.5098 164C75.5098 160.667 63.6098 149.9 64.0098 133.5C64.5098 113 81.5098 98 102.51 98ZM96.0098 110C101.51 109.167 113.21 112.8 116.01 134C118.81 155.2 108.176 158.167 102.51 157C97.6765 154.833 87.7098 147.8 86.5098 137C85.0098 123.5 85.5098 112.5 96.0098 110Z" fill="#1F1F1F"/>
<path d="M164.01 116C165.21 116 166.51 117.667 167.01 118.5V151C167.01 154 168.51 154.5 170.01 155C171.21 155.4 173.51 152.5 174.51 151V133C174.51 129.5 170.01 128 169.51 125.5C169.11 123.5 170.677 121 171.51 120C177.343 118.667 189.51 116 191.51 116C193.51 116 194.677 117.667 195.01 118.5V156C195.01 158.5 200.51 161 200.51 162C200.51 162.8 199.51 164.667 199.01 165.5H182.51H178.51V158C176.01 160.667 170.51 166.3 168.51 167.5C166.01 169 159.01 168 154.51 167.5C150.91 167.1 148.01 161 147.01 158C146.843 151.167 146.61 136.6 147.01 133C147.51 128.5 141.51 126.5 141.51 124.5C141.51 122.9 142.843 120.833 143.51 120C149.843 118.667 162.81 116 164.01 116Z" fill="#1F1F1F"/>
<path fill-rule="evenodd" clip-rule="evenodd" d="M250.01 133.5C249.51 128 244.71 116.8 229.51 116C210.51 115 202.51 134.5 202.51 137C202.51 139.5 203.51 155.5 205.01 157C205.129 157.119 205.293 157.293 205.499 157.51C207.879 160.029 215.886 168.5 226.01 168.5C237.01 168.5 250.01 161 250.01 157C250.01 153 249.01 150.5 247.01 150.5C246.235 150.5 244.935 151.251 243.342 152.17C240.823 153.624 237.573 155.5 234.51 155.5C229.51 155.5 223.01 151 222.51 148.5C222.11 146.5 236.01 143.333 243.01 142C245.343 141.167 250.01 138.3 250.01 133.5ZM232.01 131.5C231.843 129.167 230.71 124.5 227.51 124.5C223.51 124.5 220.01 127 220.01 131.5V140C222.343 140 227.51 139.5 229.51 137.5C231.51 135.5 232.01 132.667 232.01 131.5Z" fill="#1F1F1F"/>
<path d="M295.01 122C297.01 123.2 297.177 126.5 297.01 128C296.343 129.833 294.21 133.5 291.01 133.5C287.01 133.5 286.51 133.5 283.01 131C279.51 128.5 274.01 124 272.51 123.5C271.01 123 269.01 126 269.01 128C269.01 130 274.01 132 280.51 133.5C287.01 135 297.01 139.5 297.01 151C297.01 162.5 288.01 166 283.01 167C278.01 168 268.51 167.5 266.01 167C263.51 166.5 256.01 164.5 255.01 157.5C254.01 150.5 261.01 151 264.01 151C267.01 151 274.01 160.5 277.01 160.5C280.01 160.5 283.01 158.5 283.01 157C283.01 155.5 278.51 151 274.01 151C269.51 151 259.51 144.5 256.01 143C252.51 141.5 254.51 132 256.01 126C257.51 120 269.01 116.5 277.01 116C285.01 115.5 292.51 120.5 295.01 122Z" fill="#1F1F1F"/>
<path d="M318.01 103.5C318.41 101.5 321.843 100.333 323.51 100C325.51 101.6 326.343 103 326.51 103.5V117.5H337.51C339.91 117.5 340.843 120.5 341.01 122L337.51 127.5L326.51 128.5V151C326.51 153.5 330.01 155.5 332.51 156C335.01 156.5 336.01 153.5 338.51 153.5C341.01 153.5 343.51 155 343.51 158.5C343.51 162 334.01 166 332.01 167C330.01 168 320.01 168 315.51 168C311.91 168 308.01 160.667 306.51 157C306.343 147.5 307.71 127.5 306.51 127.5C305.01 127.5 300.01 127.5 300.01 122C300.01 119.5 305.51 117.5 309.51 115.5C313.51 113.5 317.51 106 318.01 103.5Z" fill="#1F1F1F"/>
</g>
<defs>
<clipPath id="clip0_102_44">
<rect width="379" height="219" fill="white"/>
</clipPath>
</defs>
</svg>
