<svg width="201" height="90" viewBox="0 0 201 90" fill="none" xmlns="http://www.w3.org/2000/svg">
<line x1="71" y1="57" x2="136" y2="57" stroke="white" stroke-width="2"/>
<rect x="77" y="51" width="11" height="11" fill="#19A974"/>
<rect x="120" y="51" width="11" height="11" fill="#19A974"/>
<rect x="10" y="28" width="60" height="60" stroke="white" stroke-width="4"/>
<path d="M31.22 63H29.765L26.9 55.095H28.25L30.53 61.86L32.78 55.095H34.1L31.22 63ZM41.6991 54.93C42.1491 54.93 42.5141 55.09 42.7941 55.41C43.0841 55.72 43.2291 56.29 43.2291 57.12V63H42.0741V57.33C42.0741 56.78 42.0391 56.41 41.9691 56.22C41.8991 56.02 41.7291 55.92 41.4591 55.92C40.9491 55.92 40.4891 56.235 40.0791 56.865V63H38.9091V57.33C38.9091 56.78 38.8741 56.41 38.8041 56.22C38.7341 56.02 38.5641 55.92 38.2941 55.92C37.7841 55.92 37.3241 56.235 36.9141 56.865V63H35.7591V55.095H36.7341L36.8241 56.025C37.0641 55.675 37.3141 55.405 37.5741 55.215C37.8441 55.025 38.1641 54.93 38.5341 54.93C39.2741 54.93 39.7491 55.28 39.9591 55.98C40.1991 55.64 40.4541 55.38 40.7241 55.2C40.9941 55.02 41.3191 54.93 41.6991 54.93ZM48.4883 52.5C49.5883 52.5 50.4233 52.96 50.9933 53.88C51.5733 54.79 51.8633 56.105 51.8633 57.825C51.8633 59.555 51.5733 60.88 50.9933 61.8C50.4233 62.71 49.5883 63.165 48.4883 63.165C47.3883 63.165 46.5483 62.71 45.9683 61.8C45.3983 60.88 45.1133 59.555 45.1133 57.825C45.1133 56.105 45.3983 54.79 45.9683 53.88C46.5483 52.96 47.3883 52.5 48.4883 52.5ZM48.4883 53.52C47.1183 53.52 46.4333 54.955 46.4333 57.825C46.4333 60.705 47.1183 62.145 48.4883 62.145C49.8583 62.145 50.5433 60.705 50.5433 57.825C50.5433 54.955 49.8583 53.52 48.4883 53.52ZM48.4883 56.85C48.7683 56.85 49.0033 56.945 49.1933 57.135C49.3833 57.325 49.4783 57.555 49.4783 57.825C49.4783 58.105 49.3833 58.34 49.1933 58.53C49.0033 58.72 48.7683 58.815 48.4883 58.815C48.2083 58.815 47.9733 58.72 47.7833 58.53C47.6033 58.34 47.5133 58.105 47.5133 57.825C47.5133 57.555 47.6033 57.325 47.7833 57.135C47.9733 56.945 48.2083 56.85 48.4883 56.85Z" fill="white"/>
<path d="M8.355 6.845C8.355 7.995 8 8.835 7.29 9.365C6.58 9.895 5.605 10.16 4.365 10.16H3.03V14H1.74V3.665H4.365C5.635 3.665 6.615 3.93 7.305 4.46C8.005 4.99 8.355 5.785 8.355 6.845ZM6.96 6.86C6.96 6.11 6.74 5.565 6.3 5.225C5.87 4.875 5.28 4.7 4.53 4.7H3.03V9.125H4.485C5.265 9.125 5.87 8.955 6.3 8.615C6.74 8.275 6.96 7.69 6.96 6.86ZM17.2891 8.78C17.2891 10.74 16.8391 12.1 15.9391 12.86C15.0391 13.62 13.9291 14 12.6091 14H10.2391V3.665H12.4441C13.8941 3.665 15.0641 4.03 15.9541 4.76C16.8441 5.49 17.2891 6.83 17.2891 8.78ZM15.8941 8.78C15.8941 7.66 15.7391 6.805 15.4291 6.215C15.1291 5.615 14.7541 5.22 14.3041 5.03C13.8541 4.83 13.3391 4.73 12.7591 4.73H11.5441V12.95H12.7741C13.6641 12.95 14.4041 12.645 14.9941 12.035C15.5941 11.415 15.8941 10.33 15.8941 8.78ZM26.3433 6.845C26.3433 7.995 25.9883 8.835 25.2783 9.365C24.5683 9.895 23.5933 10.16 22.3533 10.16H21.0183V14H19.7283V3.665H22.3533C23.6233 3.665 24.6033 3.93 25.2933 4.46C25.9933 4.99 26.3433 5.785 26.3433 6.845ZM24.9483 6.86C24.9483 6.11 24.7283 5.565 24.2883 5.225C23.8583 4.875 23.2683 4.7 22.5183 4.7H21.0183V9.125H22.4733C23.2533 9.125 23.8583 8.955 24.2883 8.615C24.7283 8.275 24.9483 7.69 24.9483 6.86ZM28.8574 8.765H34.1074V9.845H28.8574V8.765ZM43.7316 12.98V14H37.7766V12.98H40.3116V5.045L37.9566 6.47L37.4016 5.585L40.4766 3.665H41.5866V12.98H43.7316ZM52.7257 12.98V14H46.7707V12.98H49.3057V5.045L46.9507 6.47L46.3957 5.585L49.4707 3.665H50.5807V12.98H52.7257ZM54.7598 15.095L61.1648 1.865L62.1698 2.345L55.7798 15.545L54.7598 15.095ZM66.994 3.5C67.624 3.5 68.174 3.625 68.644 3.875C69.124 4.125 69.489 4.47 69.739 4.91C69.989 5.34 70.114 5.83 70.114 6.38C70.114 7.02 69.964 7.64 69.664 8.24C69.374 8.84 68.904 9.5 68.254 10.22C67.604 10.93 66.684 11.83 65.494 12.92H70.354L70.204 14H64.054V12.98C65.404 11.69 66.404 10.68 67.054 9.95C67.714 9.22 68.169 8.595 68.419 8.075C68.669 7.555 68.794 7.005 68.794 6.425C68.794 5.845 68.629 5.39 68.299 5.06C67.969 4.73 67.514 4.565 66.934 4.565C66.444 4.565 66.034 4.65 65.704 4.82C65.384 4.98 65.054 5.26 64.714 5.66L63.844 4.985C64.254 4.475 64.709 4.1 65.209 3.86C65.719 3.62 66.314 3.5 66.994 3.5ZM76.4531 3.5C77.5531 3.5 78.3881 3.96 78.9581 4.88C79.5381 5.79 79.8281 7.105 79.8281 8.825C79.8281 10.555 79.5381 11.88 78.9581 12.8C78.3881 13.71 77.5531 14.165 76.4531 14.165C75.3531 14.165 74.5131 13.71 73.9331 12.8C73.3631 11.88 73.0781 10.555 73.0781 8.825C73.0781 7.105 73.3631 5.79 73.9331 4.88C74.5131 3.96 75.3531 3.5 76.4531 3.5ZM76.4531 4.52C75.0831 4.52 74.3981 5.955 74.3981 8.825C74.3981 11.705 75.0831 13.145 76.4531 13.145C77.8231 13.145 78.5081 11.705 78.5081 8.825C78.5081 5.955 77.8231 4.52 76.4531 4.52ZM76.4531 7.85C76.7331 7.85 76.9681 7.945 77.1581 8.135C77.3481 8.325 77.4431 8.555 77.4431 8.825C77.4431 9.105 77.3481 9.34 77.1581 9.53C76.9681 9.72 76.7331 9.815 76.4531 9.815C76.1731 9.815 75.9381 9.72 75.7481 9.53C75.5681 9.34 75.4781 9.105 75.4781 8.825C75.4781 8.555 75.5681 8.325 75.7481 8.135C75.9381 7.945 76.1731 7.85 76.4531 7.85Z" fill="white"/>
<rect x="138" y="43" width="60" height="30" stroke="white" stroke-width="4"/>
<path d="M165.84 54.93C166.16 54.93 166.53 54.985 166.95 55.095L166.77 57.78H165.75V56.085H165.675C164.455 56.085 163.59 56.955 163.08 58.695V62.025H164.685V63H160.575V62.025H161.82V56.07H160.575V55.095H162.765L163.005 56.97C163.325 56.29 163.705 55.78 164.145 55.44C164.595 55.1 165.16 54.93 165.84 54.93ZM175.749 61.98V63H169.794V61.98H172.329V54.045L169.974 55.47L169.419 54.585L172.494 52.665H173.604V61.98H175.749Z" fill="white"/>
<path d="M146.295 25.78C146.295 27.74 145.845 29.1 144.945 29.86C144.045 30.62 142.935 31 141.615 31H139.245V20.665H141.45C142.9 20.665 144.07 21.03 144.96 21.76C145.85 22.49 146.295 23.83 146.295 25.78ZM144.9 25.78C144.9 24.66 144.745 23.805 144.435 23.215C144.135 22.615 143.76 22.22 143.31 22.03C142.86 21.83 142.345 21.73 141.765 21.73H140.55V29.95H141.78C142.67 29.95 143.41 29.645 144 29.035C144.6 28.415 144.9 27.33 144.9 25.78ZM155.289 25.78C155.289 27.74 154.839 29.1 153.939 29.86C153.039 30.62 151.929 31 150.609 31H148.239V20.665H150.444C151.894 20.665 153.064 21.03 153.954 21.76C154.844 22.49 155.289 23.83 155.289 25.78ZM153.894 25.78C153.894 24.66 153.739 23.805 153.429 23.215C153.129 22.615 152.754 22.22 152.304 22.03C151.854 21.83 151.339 21.73 150.759 21.73H149.544V29.95H150.774C151.664 29.95 152.404 29.645 152.994 29.035C153.594 28.415 153.894 27.33 153.894 25.78ZM164.343 23.845C164.343 24.995 163.988 25.835 163.278 26.365C162.568 26.895 161.593 27.16 160.353 27.16H159.018V31H157.728V20.665H160.353C161.623 20.665 162.603 20.93 163.293 21.46C163.993 21.99 164.343 22.785 164.343 23.845ZM162.948 23.86C162.948 23.11 162.728 22.565 162.288 22.225C161.858 21.875 161.268 21.7 160.518 21.7H159.018V26.125H160.473C161.253 26.125 161.858 25.955 162.288 25.615C162.728 25.275 162.948 24.69 162.948 23.86ZM166.857 25.765H172.107V26.845H166.857V25.765ZM181.102 21.685H177.022V24.94C177.312 24.77 177.597 24.655 177.877 24.595C178.167 24.525 178.472 24.49 178.792 24.49C179.652 24.49 180.337 24.775 180.847 25.345C181.367 25.915 181.627 26.71 181.627 27.73C181.627 28.41 181.482 29.01 181.192 29.53C180.912 30.05 180.507 30.455 179.977 30.745C179.447 31.025 178.832 31.165 178.132 31.165C176.982 31.165 175.982 30.755 175.132 29.935L175.912 29.17C176.542 29.81 177.282 30.13 178.132 30.13C178.822 30.13 179.357 29.92 179.737 29.5C180.117 29.08 180.307 28.475 180.307 27.685C180.307 26.905 180.137 26.345 179.797 26.005C179.457 25.655 179.002 25.48 178.432 25.48C178.162 25.48 177.917 25.505 177.697 25.555C177.477 25.605 177.187 25.695 176.827 25.825H175.807V20.665H181.282L181.102 21.685ZM190.726 29.98V31H184.771V29.98H187.306V22.045L184.951 23.47L184.396 22.585L187.471 20.665H188.581V29.98H190.726ZM196.915 24.28C197.455 24.28 197.945 24.4 198.385 24.64C198.835 24.88 199.19 25.245 199.45 25.735C199.71 26.215 199.84 26.81 199.84 27.52C199.84 28.26 199.695 28.91 199.405 29.47C199.115 30.02 198.725 30.44 198.235 30.73C197.745 31.02 197.195 31.165 196.585 31.165C195.385 31.165 194.51 30.73 193.96 29.86C193.42 28.99 193.15 27.745 193.15 26.125C193.15 24.985 193.3 23.995 193.6 23.155C193.91 22.305 194.35 21.65 194.92 21.19C195.5 20.73 196.19 20.5 196.99 20.5C197.74 20.5 198.425 20.705 199.045 21.115L198.55 21.955C198.06 21.665 197.535 21.52 196.975 21.52C196.185 21.52 195.565 21.89 195.115 22.63C194.675 23.37 194.445 24.38 194.425 25.66C194.745 25.18 195.11 24.83 195.52 24.61C195.93 24.39 196.395 24.28 196.915 24.28ZM196.585 30.145C197.225 30.145 197.71 29.92 198.04 29.47C198.38 29.01 198.55 28.375 198.55 27.565C198.55 26.055 197.94 25.3 196.72 25.3C196.24 25.3 195.805 25.435 195.415 25.705C195.035 25.965 194.71 26.32 194.44 26.77C194.46 27.94 194.64 28.795 194.98 29.335C195.32 29.875 195.855 30.145 196.585 30.145Z" fill="white"/>
</svg>
