<svg width="49" height="25" viewBox="0 0 49 25" fill="none" xmlns="http://www.w3.org/2000/svg">
<rect width="49" height="25" fill="white"/>
<path d="M10.1562 12.6875L5.0625 5.32812H9.09375L12.1406 10.1562L15.0469 5.32812H18.9219L14.1562 12.5781L19.5312 20.2656H15.4375L12.1719 15.2031L9.09375 20.2656H5L10.1562 12.6875Z" fill="#7B7BF7"/>
<path d="M25.5144 20.7812C24.1915 20.7812 22.9883 20.4427 21.905 19.7656C20.8217 19.0885 19.9675 18.1458 19.3425 16.9375C18.7175 15.7292 18.405 14.3542 18.405 12.8125C18.405 11.3646 18.7227 10.0469 19.3581 8.85938C19.9935 7.66146 20.8529 6.71875 21.9362 6.03125C23.03 5.34375 24.2227 5 25.5144 5C26.806 5 27.9935 5.34375 29.0769 6.03125C30.1706 6.71875 31.0352 7.66146 31.6706 8.85938C32.306 10.0469 32.6237 11.3646 32.6237 12.8125C32.6237 14.3542 32.3112 15.7292 31.6862 16.9375C31.0612 18.1458 30.2071 19.0885 29.1237 19.7656C28.0404 20.4427 26.8373 20.7812 25.5144 20.7812ZM25.5144 17.8906C26.2227 17.8906 26.8373 17.6823 27.3581 17.2656C27.8894 16.8385 28.2956 16.2448 28.5769 15.4844C28.8581 14.7135 28.9987 13.8229 28.9987 12.8125C28.9987 11.7917 28.8581 10.9115 28.5769 10.1719C28.2956 9.43229 27.8894 8.86458 27.3581 8.46875C26.8373 8.07292 26.2227 7.875 25.5144 7.875C24.8373 7.875 24.2383 8.07292 23.7175 8.46875C23.2071 8.86458 22.806 9.4375 22.5144 10.1875C22.2331 10.9271 22.0925 11.8021 22.0925 12.8125C22.0925 13.8333 22.2279 14.7292 22.4987 15.5C22.78 16.2604 23.1758 16.849 23.6862 17.2656C24.1967 17.6823 24.806 17.8906 25.5144 17.8906Z" fill="#7B7BF7"/>
<path d="M41.6069 5C42.3465 5 43.0808 5.14062 43.81 5.42188C44.5496 5.69271 45.2058 6.09896 45.7787 6.64062L44.06 10.0781L43.7319 9.92188C43.711 9.84896 43.6902 9.74479 43.6694 9.60938C43.6381 9.41146 43.5912 9.24479 43.5287 9.10938C43.4767 8.96354 43.3621 8.81771 43.185 8.67188C42.6642 8.25521 42.0235 8.04688 41.2631 8.04688C40.5027 8.04688 39.8152 8.22917 39.2006 8.59375C38.586 8.94792 38.1017 9.45833 37.7475 10.125C37.4037 10.7917 37.2319 11.5677 37.2319 12.4531V20.2656H33.6069V5.32812H37.2944V7.46875C37.6902 6.69792 38.2683 6.09375 39.0287 5.65625C39.7996 5.21875 40.659 5 41.6069 5Z" fill="#7B7BF7"/>
</svg>
