<svg width="1782" height="369" viewBox="0 0 1782 369" fill="none" xmlns="http://www.w3.org/2000/svg">
<path d="M268.571 369L373 187.629L279.772 25.5287L167.254 25.5327L194.465 73.4561L252.04 73.4542L317.702 187.624L266.263 277.057L108.162 0L93.6392 24.7928L0 187.639L93.2254 349.735L210.357 349.73L179.724 301.807L120.957 301.809L55.2952 187.639L107.542 96.8025L268.571 369Z" fill="white"/>
<path d="M463 96.4226C490.015 96.4226 508.96 96.5034 519.836 96.6649C553.517 97.3109 578.339 105.144 594.302 120.164C610.441 135.184 618.51 156.18 618.51 183.152C618.51 211.093 610.178 232.816 593.513 248.32C576.848 263.825 551.85 271.577 518.521 271.577H463V96.4226ZM501.68 242.991H519.31C537.027 242.991 551.236 238.226 561.937 228.697C572.813 219.007 578.251 203.744 578.251 182.91C578.251 163.044 573.164 148.428 562.99 139.061C552.991 129.693 538.606 125.009 519.836 125.009H501.68V242.991Z" fill="white"/>
<path d="M682.905 96.4226V271.577H644.488V96.4226H682.905Z" fill="white"/>
<path d="M770.439 96.4226H810.961L878.849 271.577H840.695L825.171 230.878H756.757L740.706 271.577H702.289L770.439 96.4226ZM815.961 200.11L790.7 130.581L765.177 200.11H815.961Z" fill="white"/>
<path d="M972.293 274C955.102 274 940.016 270.366 927.035 263.098C914.229 255.669 904.318 245.252 897.301 231.847C890.284 218.28 886.776 202.533 886.776 184.606C886.776 166.355 890.46 150.366 897.827 136.638C905.195 122.91 915.457 112.412 928.614 105.144C941.77 97.7147 957.032 94 974.399 94C988.958 94 1002.03 96.7456 1013.6 102.237C1025.36 107.728 1034.57 114.996 1041.23 124.04C1047.9 133.085 1051.5 142.694 1052.02 152.869L1011.5 153.596C1009.57 144.875 1005.27 137.769 998.607 132.277C991.941 126.624 983.608 123.798 973.609 123.798C959.926 123.798 948.963 128.724 940.718 138.576C932.473 148.428 928.351 163.287 928.351 183.152C928.351 204.471 932.648 219.814 941.244 229.182C950.015 238.388 961.242 242.991 974.925 242.991C982.117 242.991 988.432 241.618 993.87 238.872C999.308 235.965 1003.61 232.331 1006.76 227.97C1009.92 223.61 1011.76 219.249 1012.29 214.888L1014.13 204.229H974.662V179.76L1054.39 180.003V271.577H1028.08V248.805C1021.94 256.234 1014.48 262.291 1005.71 266.974C997.115 271.658 985.976 274 972.293 274Z" fill="white"/>
<path d="M1167.19 274C1149.3 274 1133.78 270.447 1120.62 263.341C1107.46 256.073 1097.29 245.736 1090.1 232.331C1083.08 218.926 1079.57 203.018 1079.57 184.606C1079.57 166.032 1083.17 149.962 1090.36 136.396C1097.55 122.668 1107.73 112.17 1120.88 104.902C1134.04 97.6339 1149.48 94 1167.19 94C1184.74 94 1200.08 97.6339 1213.24 104.902C1226.4 112.17 1236.48 122.668 1243.5 136.396C1250.69 149.962 1254.29 165.952 1254.29 184.363C1254.29 202.614 1250.69 218.522 1243.5 232.089C1236.48 245.494 1226.4 255.83 1213.24 263.098C1200.26 270.366 1184.91 274 1167.19 274ZM1167.19 244.929C1197.37 244.929 1212.45 224.902 1212.45 184.848C1212.45 163.69 1208.5 148.105 1200.61 138.092C1192.72 128.078 1181.58 123.071 1167.19 123.071C1152.81 123.071 1141.58 128.159 1133.51 138.334C1125.44 148.347 1121.41 163.852 1121.41 184.848C1121.41 205.359 1125.44 220.541 1133.51 230.393C1141.58 240.083 1152.81 244.929 1167.19 244.929Z" fill="white"/>
<path d="M1444.94 96.4226V271.577H1410.2L1319.95 151.174V271.577H1281.53V96.4226H1319.69L1406.26 212.466V96.4226H1444.94Z" fill="white"/>
<path d="M1532.62 96.4226H1573.15L1641.03 271.577H1602.88L1587.36 230.878H1518.94L1502.89 271.577H1464.47L1532.62 96.4226ZM1578.15 200.11L1552.88 130.581L1527.36 200.11H1578.15Z" fill="white"/>
<path d="M1699.38 96.4226V241.779H1782V271.577H1660.7V96.4226H1699.38Z" fill="white"/>
</svg>
