<svg width="827" height="378" viewBox="0 0 827 378" fill="none" xmlns="http://www.w3.org/2000/svg">
<mask id="path-1-inside-1" fill="white">
<rect x="65" y="74" width="228.818" height="228.818" rx="12"/>
</mask>
<rect x="65" y="74" width="228.818" height="228.818" rx="12" fill="#131023" stroke="white" stroke-width="40" mask="url(#path-1-inside-1)"/>
<path d="M124.49 146.977L169.628 174.859V187.879L124.663 215.761L116.409 203.375L153.928 181.369L116.409 160.054L124.49 146.977Z" fill="white"/>
<path d="M185.687 238.977V224.69H243.409V238.977H185.687Z" fill="white"/>
<path d="M442.659 189.477L401.909 130.602H434.159L458.534 169.227L481.784 130.602H512.784L474.659 188.602L517.659 250.102H484.909L458.784 209.602L434.159 250.102H401.409L442.659 189.477Z" fill="white"/>
<path d="M565.524 254.227C554.94 254.227 545.315 251.519 536.649 246.102C527.982 240.685 521.149 233.144 516.149 223.477C511.149 213.81 508.649 202.81 508.649 190.477C508.649 178.894 511.19 168.352 516.274 158.852C521.357 149.269 528.232 141.727 536.899 136.227C545.649 130.727 555.19 127.977 565.524 127.977C575.857 127.977 585.357 130.727 594.024 136.227C602.774 141.727 609.69 149.269 614.774 158.852C619.857 168.352 622.399 178.894 622.399 190.477C622.399 202.81 619.899 213.81 614.899 223.477C609.899 233.144 603.065 240.685 594.399 246.102C585.732 251.519 576.107 254.227 565.524 254.227ZM565.524 231.102C571.19 231.102 576.107 229.435 580.274 226.102C584.524 222.685 587.774 217.935 590.024 211.852C592.274 205.685 593.399 198.56 593.399 190.477C593.399 182.31 592.274 175.269 590.024 169.352C587.774 163.435 584.524 158.894 580.274 155.727C576.107 152.56 571.19 150.977 565.524 150.977C560.107 150.977 555.315 152.56 551.149 155.727C547.065 158.894 543.857 163.477 541.524 169.477C539.274 175.394 538.149 182.394 538.149 190.477C538.149 198.644 539.232 205.81 541.399 211.977C543.649 218.06 546.815 222.769 550.899 226.102C554.982 229.435 559.857 231.102 565.524 231.102Z" fill="white"/>
<path d="M694.264 127.977C700.18 127.977 706.055 129.102 711.889 131.352C717.805 133.519 723.055 136.769 727.639 141.102L713.889 168.602L711.264 167.352C711.097 166.769 710.93 165.935 710.764 164.852C710.514 163.269 710.139 161.935 709.639 160.852C709.222 159.685 708.305 158.519 706.889 157.352C702.722 154.019 697.597 152.352 691.514 152.352C685.43 152.352 679.93 153.81 675.014 156.727C670.097 159.56 666.222 163.644 663.389 168.977C660.639 174.31 659.264 180.519 659.264 187.602V250.102H630.264V130.602H659.764V147.727C662.93 141.56 667.555 136.727 673.639 133.227C679.805 129.727 686.68 127.977 694.264 127.977Z" fill="white"/>
</svg>
