<svg width="512" height="512" viewBox="0 0 512 512" fill="none" xmlns="http://www.w3.org/2000/svg">
<path d="M363.273 0H148.728C66.719 0 0 66.719 0 148.728V363.272C0 445.281 66.719 512 148.728 512H363.272C445.281 512 512 445.281 512 363.273V148.728C512 66.719 445.281 0 363.273 0ZM472 363.272C472 423.225 423.225 472 363.273 472H148.728C88.775 472 40 423.225 40 363.273V148.728C40 88.775 88.775 40 148.728 40H363.272C423.225 40 472 88.775 472 148.728V363.272Z" fill="white"/>
<path d="M256 118C179.906 118 118 179.906 118 256C118 332.094 179.906 394 256 394C332.094 394 394 332.094 394 256C394 179.906 332.094 118 256 118ZM256 354C201.963 354 158 310.037 158 256C158 201.963 201.963 158 256 158C310.037 158 354 201.963 354 256C354 310.037 310.037 354 256 354Z" fill="white"/>
<path d="M396 136C407.046 136 416 127.046 416 116C416 104.954 407.046 96 396 96C384.954 96 376 104.954 376 116C376 127.046 384.954 136 396 136Z" fill="white"/>
</svg>
