<svg width="128" height="128" viewBox="0 0 128 128" fill="none" xmlns="http://www.w3.org/2000/svg">
<path d="M100.5 0H27.5C12.3122 0 0 12.3122 0 27.5V100.5C0 115.688 12.3122 128 27.5 128H100.5C115.688 128 128 115.688 128 100.5V27.5C128 12.3122 115.688 0 100.5 0Z" fill="white"/>
<path d="M34 106.5C40.6274 106.5 46 101.127 46 94.5C46 87.8726 40.6274 82.5 34 82.5C27.3726 82.5 22 87.8726 22 94.5C22 101.127 27.3726 106.5 34 106.5Z" fill="#131313"/>
<path d="M80 106.5H63C63 95.6261 58.6804 85.1976 50.9914 77.5086C43.3024 69.8196 32.8739 65.5 22 65.5V48.5C29.6167 48.5 37.1588 50.0002 44.1956 52.915C51.2325 55.8298 57.6264 60.102 63.0122 65.4878C68.398 70.8736 72.6702 77.2675 75.585 84.3044C78.4998 91.3412 80 98.8833 80 106.5V106.5Z" fill="#131313"/>
<path d="M92 106.5C92 87.9348 84.625 70.1301 71.4975 57.0025C58.3699 43.875 40.5652 36.5 22 36.5V19C45.2064 19 67.4624 28.2187 83.8718 44.6282C100.281 61.0376 109.5 83.2936 109.5 106.5H92Z" fill="#131313"/>
</svg>
