<svg width="50" height="50" viewBox="0 0 50 50" fill="none" xmlns="http://www.w3.org/2000/svg">
<path d="M43.0707 9.1027C38.7446 5.616 31.9 5.02509 31.6065 5.00441C31.3836 4.98603 31.1604 5.03754 30.968 5.1518C30.7756 5.26606 30.6234 5.43742 30.5326 5.64211C30.4021 5.93618 30.2913 6.23866 30.2011 6.54753C33.063 7.03179 36.5783 8.00576 39.7587 9.98199C39.88 10.0574 39.9853 10.1559 40.0686 10.2721C40.1519 10.3882 40.2115 10.5196 40.2441 10.6588C40.2766 10.798 40.2815 10.9423 40.2583 11.0834C40.2352 11.2244 40.1845 11.3596 40.1092 11.481C40.0339 11.6025 39.9355 11.7079 39.8195 11.7913C39.7035 11.8747 39.5722 11.9344 39.4332 11.967C39.2942 11.9996 39.1501 12.0044 39.0092 11.9813C38.8683 11.9581 38.7333 11.9074 38.612 11.832C33.1446 8.43343 26.3163 8.26476 25 8.26476C23.6848 8.26476 16.8522 8.43452 11.388 11.8309C11.2667 11.9063 11.1317 11.957 10.9908 11.9802C10.8499 12.0033 10.7058 11.9985 10.5668 11.9659C10.286 11.9001 10.0428 11.7253 9.89076 11.4799C9.73869 11.2346 9.69019 10.9389 9.75593 10.6577C9.82167 10.3766 9.99627 10.1331 10.2413 9.9809C13.4217 8.01011 16.937 7.03179 19.7989 6.55188C19.6337 6.01211 19.4837 5.6715 19.4728 5.64211C19.3824 5.43597 19.2295 5.26349 19.0358 5.14906C18.8422 5.03463 18.6174 4.98403 18.3935 5.00441C18.1 5.02617 11.2554 5.616 6.86956 9.14949C4.58152 11.2694 0 23.6654 0 34.3824C0 34.5739 0.0510868 34.7567 0.144565 34.9221C3.30326 40.483 11.9272 41.9358 13.8924 42H13.9261C14.0976 42.0004 14.2668 41.9602 14.4198 41.8827C14.5728 41.8052 14.7053 41.6925 14.8065 41.5538L16.7924 38.8158C11.4304 37.4305 8.6913 35.0756 8.53478 34.9352C8.31857 34.7441 8.18703 34.4749 8.16909 34.1867C8.15115 33.8986 8.24829 33.6151 8.43913 33.3986C8.62997 33.1821 8.89888 33.0504 9.18671 33.0325C9.47454 33.0145 9.7577 33.1118 9.97391 33.3028C10.037 33.3627 15.0815 37.6471 25 37.6471C34.9348 37.6471 39.9793 33.3453 40.0304 33.3028C40.2473 33.1131 40.5305 33.0174 40.8179 33.0365C41.1052 33.0557 41.3732 33.1883 41.563 33.4051C41.657 33.512 41.729 33.6364 41.7749 33.7711C41.8209 33.9059 41.8398 34.0484 41.8307 34.1904C41.8217 34.3325 41.7847 34.4714 41.722 34.5992C41.6593 34.727 41.572 34.8412 41.4652 34.9352C41.3087 35.0756 38.5696 37.4305 33.2076 38.8158L35.1946 41.5538C35.2956 41.6923 35.428 41.8049 35.5808 41.8825C35.7336 41.96 35.9026 42.0003 36.0739 42H36.1065C38.0739 41.9358 46.6967 40.4819 49.8565 34.9221C49.9489 34.7567 50 34.5739 50 34.3824C50 23.6654 45.4185 11.2705 43.0707 9.1027V9.1027ZM17.9348 30.0294C15.8326 30.0294 14.1304 28.0815 14.1304 25.6765C14.1304 23.2715 15.8326 21.3236 17.9348 21.3236C20.037 21.3236 21.7391 23.2715 21.7391 25.6765C21.7391 28.0815 20.037 30.0294 17.9348 30.0294ZM32.0652 30.0294C29.963 30.0294 28.2609 28.0815 28.2609 25.6765C28.2609 23.2715 29.963 21.3236 32.0652 21.3236C34.1674 21.3236 35.8696 23.2715 35.8696 25.6765C35.8696 28.0815 34.1674 30.0294 32.0652 30.0294Z" fill="white"/>
</svg>
