<svg width="66" height="25" viewBox="0 0 66 25" fill="none" xmlns="http://www.w3.org/2000/svg">
<path d="M28.1562 12.6875L23.0625 5.32812H27.0938L30.1406 10.1562L33.0469 5.32812H36.9219L32.1562 12.5781L37.5312 20.2656H33.4375L30.1719 15.2031L27.0938 20.2656H23L28.1562 12.6875Z" fill="white"/>
<path d="M43.5144 20.7812C42.1915 20.7812 40.9883 20.4427 39.905 19.7656C38.8217 19.0885 37.9675 18.1458 37.3425 16.9375C36.7175 15.7292 36.405 14.3542 36.405 12.8125C36.405 11.3646 36.7227 10.0469 37.3581 8.85938C37.9935 7.66146 38.8529 6.71875 39.9362 6.03125C41.03 5.34375 42.2227 5 43.5144 5C44.806 5 45.9935 5.34375 47.0769 6.03125C48.1706 6.71875 49.0352 7.66146 49.6706 8.85938C50.306 10.0469 50.6237 11.3646 50.6237 12.8125C50.6237 14.3542 50.3112 15.7292 49.6862 16.9375C49.0612 18.1458 48.2071 19.0885 47.1237 19.7656C46.0404 20.4427 44.8373 20.7812 43.5144 20.7812ZM43.5144 17.8906C44.2227 17.8906 44.8373 17.6823 45.3581 17.2656C45.8894 16.8385 46.2956 16.2448 46.5769 15.4844C46.8581 14.7135 46.9987 13.8229 46.9987 12.8125C46.9987 11.7917 46.8581 10.9115 46.5769 10.1719C46.2956 9.43229 45.8894 8.86458 45.3581 8.46875C44.8373 8.07292 44.2227 7.875 43.5144 7.875C42.8373 7.875 42.2383 8.07292 41.7175 8.46875C41.2071 8.86458 40.806 9.4375 40.5144 10.1875C40.2331 10.9271 40.0925 11.8021 40.0925 12.8125C40.0925 13.8333 40.2279 14.7292 40.4987 15.5C40.78 16.2604 41.1758 16.849 41.6862 17.2656C42.1967 17.6823 42.806 17.8906 43.5144 17.8906Z" fill="white"/>
<path d="M59.6069 5C60.3465 5 61.0808 5.14062 61.81 5.42188C62.5496 5.69271 63.2058 6.09896 63.7787 6.64062L62.06 10.0781L61.7319 9.92188C61.711 9.84896 61.6902 9.74479 61.6694 9.60938C61.6381 9.41146 61.5912 9.24479 61.5287 9.10938C61.4767 8.96354 61.3621 8.81771 61.185 8.67188C60.6642 8.25521 60.0235 8.04688 59.2631 8.04688C58.5027 8.04688 57.8152 8.22917 57.2006 8.59375C56.586 8.94792 56.1017 9.45833 55.7475 10.125C55.4037 10.7917 55.2319 11.5677 55.2319 12.4531V20.2656H51.6069V5.32812H55.2944V7.46875C55.6902 6.69792 56.2683 6.09375 57.0287 5.65625C57.7996 5.21875 58.659 5 59.6069 5Z" fill="white"/>
<path d="M8.4781 2.78067C9.71761 2.26022 11.055 2 12.4902 2C13.9385 2 15.2824 2.26022 16.5219 2.78067C17.7614 3.30112 18.8966 4.07528 19.9273 5.10316C20.9581 6.13104 21.7279 7.26301 22.2367 8.49907C22.7456 9.73513 23 11.0818 23 12.539C23 13.9572 22.7456 15.2844 22.2367 16.5204C21.7279 17.7565 20.9581 18.8885 19.9273 19.9164C18.8966 20.9312 17.7614 21.6989 16.5219 22.2193C15.2824 22.7398 13.9385 23 12.4902 23C11.055 23 9.71761 22.7398 8.4781 22.2193C7.23858 21.6989 6.10345 20.9312 5.07269 19.9164C4.04194 18.8885 3.27213 17.7565 2.76328 16.5204C2.25443 15.2844 2 13.9572 2 12.539C2 11.0818 2.25443 9.73513 2.76328 8.49907C3.27213 7.26301 4.04194 6.13104 5.07269 5.10316C6.10345 4.07528 7.23858 3.30112 8.4781 2.78067ZM15.4651 5.33736C14.5517 4.94703 13.5601 4.75186 12.4902 4.75186C11.4334 4.75186 10.4418 4.94703 9.51538 5.33736C8.6151 5.7277 7.78658 6.29368 7.02982 7.03532C6.26002 7.80297 5.68593 8.64219 5.30755 9.55297C4.94222 10.4638 4.75955 11.4591 4.75955 12.539C4.75955 13.5799 4.94222 14.5558 5.30755 15.4665C5.68593 16.3773 6.26002 17.2165 7.02982 17.9842C7.78658 18.7258 8.6151 19.2918 9.51538 19.6822C10.4418 20.0725 11.4334 20.2677 12.4902 20.2677C13.5601 20.2677 14.5517 20.0725 15.4651 19.6822C16.3784 19.2918 17.2134 18.7258 17.9702 17.9842C18.74 17.2165 19.3075 16.3773 19.6729 15.4665C20.0513 14.5558 20.2404 13.5799 20.2404 12.539C20.2404 11.4591 20.0513 10.4638 19.6729 9.55297C19.3075 8.64219 18.74 7.80297 17.9702 7.03532C17.2134 6.29368 16.3784 5.7277 15.4651 5.33736ZM11.1202 5.76673H13.8602V11.1729H19.2619V13.9052H13.8602V19.2528H11.1202V13.9052H5.73812V11.1729H11.1202V5.76673Z" fill="white"/>
</svg>
